<?xml version="1.0" encoding="utf-8"?>
<!-- Generator: Adobe Illustrator 15.1.0, SVG Export Plug-In . SVG Version: 6.00 Build 0)  -->
<!DOCTYPE svg PUBLIC "-//W3C//DTD SVG 1.1//EN" "http://www.w3.org/Graphics/SVG/1.1/DTD/svg11.dtd">
<svg version="1.1" id="Layer_1" xmlns="http://www.w3.org/2000/svg" xmlns:xlink="http://www.w3.org/1999/xlink" x="0px" y="0px"
	 width="100px" height="100px" viewBox="0 0 100 100" enable-background="new 0 0 100 100" xml:space="preserve">
<g id="Layer_x0020_1">
	<path fill="#282c34" d="M68.309,11.845c-0.902,2.77-2.363,5.336-4.123,7.471v0.004c-1.776,2.147-4.147,4.045-6.785,5.304
		c-2.422,1.155-5.077,1.778-7.718,1.571l-0.808-0.063l-0.107-0.805c-0.343-2.597,0.053-5.224,0.888-7.656
		c0.971-2.83,2.545-5.412,4.232-7.369h-0.001c1.747-2.046,4.091-3.828,6.599-5.118c2.519-1.294,5.222-2.104,7.683-2.204l0.93-0.038
		l0.103,0.93C69.498,6.591,69.135,9.306,68.309,11.845L68.309,11.845z"/>
	<path fill="#282c34" d="M85.411,36.261c-0.893,0.552-9.512,5.885-9.404,16.635c0.112,12.96,11.102,17.452,11.708,17.7h0.004l0.026,0.011
		l0.862,0.357l-0.295,0.882c-0.018,0.053,0.002-0.002-0.022,0.079c-0.281,0.899-2.182,6.987-6.477,13.263
		c-1.948,2.846-3.934,5.688-6.277,7.881c-2.427,2.27-5.198,3.801-8.621,3.864c-3.228,0.062-5.34-0.854-7.536-1.804
		c-2.095-0.907-4.272-1.849-7.681-1.849c-3.58,0-5.869,0.975-8.074,1.914c-2.075,0.884-4.081,1.738-6.973,1.854h-0.004
		c-3.338,0.123-6.233-1.503-8.805-3.913c-2.462-2.307-4.619-5.326-6.584-8.169c-4.437-6.405-8.294-15.725-9.486-25.202
		c-0.981-7.796-0.161-15.714,3.607-22.254c2.104-3.659,5.044-6.645,8.482-8.729c3.422-2.074,7.337-3.254,11.413-3.316l0,0
		c3.568-0.065,6.932,1.271,9.876,2.439c2.084,0.827,3.94,1.563,5.332,1.563c1.229,0,3.042-0.714,5.154-1.547
		c3.567-1.406,7.934-3.127,12.548-2.668c1.938,0.085,5.977,0.549,10.104,2.786c2.629,1.425,5.295,3.564,7.486,6.772l0.579,0.846
		l-0.863,0.558C85.444,36.244,85.488,36.213,85.411,36.261L85.411,36.261z"/>
</g>
</svg>
