<?xml version="1.0" encoding="utf-8"?>
<!-- Generator: Adobe Illustrator 15.1.0, SVG Export Plug-In . SVG Version: 6.00 Build 0)  -->
<!DOCTYPE svg PUBLIC "-//W3C//DTD SVG 1.1//EN" "http://www.w3.org/Graphics/SVG/1.1/DTD/svg11.dtd">
<svg version="1.1" id="Layer_1" xmlns="http://www.w3.org/2000/svg" xmlns:xlink="http://www.w3.org/1999/xlink" x="0px" y="0px"
	 width="100px" height="100px" viewBox="0 0 100 100" enable-background="new 0 0 100 100" xml:space="preserve">
<g>
	<g>
		<path fill="#282c34" d="M65.783,6.999c-4.619-2.681-9.973-4.23-15.69-4.249c-5.786-0.014-11.207,1.538-15.874,4.249
			c-4.62-2.657-9.974-4.179-15.685-4.163v31.471C18.438,69.084,46.72,97.15,81.466,97.25V34.308V2.836
			C75.756,2.82,70.403,4.342,65.783,6.999z"/>
		<g>
			<path fill="#f6f6f6" d="M63.552,14.216c-7.045-0.02-12.84,5.371-13.468,12.257l-0.061-0.083l-0.059,0.083
				c-0.591-6.891-6.354-12.314-13.401-12.334c-7.453-0.023-13.51,6.004-13.53,13.456c-0.023,7.456,6,13.515,13.454,13.535
				c2.651,0.008,5.119-0.759,7.207-2.076l6.274,6.31l6.311-6.273c2.083,1.326,4.543,2.107,7.196,2.116
				C70.93,41.23,76.988,35.203,77.01,27.75C77.029,20.297,71.008,14.236,63.552,14.216z M36.497,36.632
				c-4.967-0.015-8.987-4.053-8.971-9.021c0.012-4.971,4.058-8.988,9.025-8.973c0.925,0.003,1.816,0.145,2.659,0.408
				c-1.568,0.698-2.665,2.261-2.67,4.091c-0.007,2.483,1.999,4.504,4.482,4.512c1.827,0.004,3.397-1.084,4.107-2.649
				c0.256,0.841,0.395,1.736,0.392,2.663C45.505,32.629,41.466,36.648,36.497,36.632z M63.488,36.708
				c-4.969-0.013-8.986-4.052-8.972-9.022c0.003-0.924,0.145-1.82,0.408-2.658c0.699,1.566,2.264,2.666,4.094,2.671
				c2.482,0.007,4.502-2,4.507-4.483c0.006-1.828-1.083-3.397-2.65-4.105c0.842-0.26,1.737-0.397,2.665-0.395
				c4.967,0.015,8.986,4.053,8.972,9.022C72.496,32.708,68.456,36.724,63.488,36.708z"/>
		</g>
	</g>
</g>
</svg>
