<?xml version="1.0" encoding="utf-8"?>
<!-- Generator: Adobe Illustrator 15.1.0, SVG Export Plug-In . SVG Version: 6.00 Build 0)  -->
<!DOCTYPE svg PUBLIC "-//W3C//DTD SVG 1.1//EN" "http://www.w3.org/Graphics/SVG/1.1/DTD/svg11.dtd">
<svg version="1.1" xmlns="http://www.w3.org/2000/svg" xmlns:xlink="http://www.w3.org/1999/xlink" x="0px" y="0px" width="100px"
	 height="100px" viewBox="0 0 100 100" enable-background="new 0 0 100 100" xml:space="preserve">
<g id="Layer_1">
	<g>
		<g id="XMLID_1_">
			<g>
				<path fill="#F6F6F6" d="M81.82,5.65V53.69C81.82,73.95,71.51,88.23,50,94.35C28.42,88.23,18.11,74.02,18.11,53.69V5.65H81.82z"
					/>
				<path fill="#282C34" d="M81.82,53.69V5.65H18.11V53.69C18.11,74.02,28.42,88.23,50,94.35C71.51,88.23,81.82,73.95,81.82,53.69z
					 M84.47,3v50.97C84.47,75.42,72.84,90.94,50,97c-22.84-6.13-34.47-21.58-34.47-43.03V3H84.47z"/>
			</g>
			<g>
			</g>
		</g>
	</g>
</g>
<g id="Layer_3_1_">
	<path fill="#282C34" d="M50,37.954l3.69,26.667l12.046-20.192l-5.152,22.211l13.021-12.464L66.85,70.61l10.863-8.077
		C72.699,76.251,68.244,83.98,50,90.177l0,0l0,0c-18.243-6.268-22.629-13.926-27.712-27.644l10.862,8.077l-6.754-16.434
		l13.021,12.464l-5.153-22.211L46.31,64.621L50,37.954L50,37.954z"/>
	<g>
		<path fill="#282C34" d="M30.852,29.042c-5.501,0-8.843-2.994-8.843-7.938V9.127h4.596v11.698c0,2.924,1.532,4.456,4.317,4.456
			c2.854,0,4.317-1.532,4.317-4.386V9.058h4.596v11.838C39.834,25.908,36.422,29.042,30.852,29.042"/>
		<path fill="#282C34" d="M48.19,16.996h1.671c2.227,0,3.481-0.835,3.481-2.367c0-1.463-1.043-2.229-3.272-2.229h-1.88V16.996z
			 M48.19,25.42h1.95c1.811,0,3.899-0.487,3.899-2.646c0-2.228-2.159-2.715-3.969-2.715h-1.88V25.42z M50.14,28.694h-6.406V9.197
			h6.476c4.734,0,7.379,1.88,7.379,5.152c0,1.741-0.904,3.133-2.646,3.969c2.366,0.836,3.552,2.368,3.552,4.596
			C58.495,26.604,55.501,28.694,50.14,28.694"/>
		<path fill="#282C34" d="M71.308,29.042c-6.338,0-10.377-3.969-10.377-10.096c0-6.058,4.248-10.097,10.516-10.097
			c2.366,0,4.316,0.488,5.987,1.393l0.14,0.07l-0.697,3.968l-0.278-0.209c-1.67-1.113-3.271-1.671-5.012-1.671
			c-3.76,0-5.989,2.437-5.989,6.476c0,3.968,2.297,6.475,6.058,6.475c1.74,0,3.481-0.557,5.361-1.602l0.279-0.209l0.627,3.69
			l-0.14,0.07C75.972,28.415,73.674,29.042,71.308,29.042"/>
	</g>
	<path fill="#282C34" d="M50,35.587c4.805,0,5.432,1.949,9.329,1.949c3.832,0,4.527-1.949,9.331-1.949
		c4.806,0,5.501,1.949,9.331,1.949v-4.456c-3.83,0-4.525-1.88-9.331-1.88c-4.804,0-5.499,1.949-9.331,1.88
		c-3.897,0-4.524-1.88-9.329-1.88s-5.431,1.949-9.33,1.88c-3.83,0-4.526-1.88-9.331-1.88c-4.804,0-5.5,1.949-9.33,1.88v4.456
		c3.83,0,4.526-1.949,9.33-1.949c4.805,0,5.501,1.949,9.331,1.949C44.499,37.536,45.195,35.587,50,35.587z"/>
	<g>
		<path fill="#282C34" d="M52.994,43.664c2.298,0.558,3.411,1.602,6.268,1.602c3.828,0,4.525-1.95,9.329-1.95s5.501,1.95,9.331,1.95
			v-4.457c-3.83,0-4.527-1.88-9.331-1.88s-5.501,1.95-9.329,1.88c-3.135,0-4.109-1.184-6.896-1.671L52.994,43.664z"/>
		<path fill="#282C34" d="M40.67,45.266c2.854,0,3.969-1.044,6.266-1.602l0.627-4.595c-2.786,0.487-3.83,1.741-6.894,1.671
			c-3.83,0-4.526-1.88-9.331-1.88c-4.804,0-5.5,1.95-9.33,1.88v4.456c3.83,0,4.526-1.95,9.33-1.95
			C36.144,43.316,36.771,45.266,40.67,45.266z"/>
	</g>
	<g>
		<path fill="#282C34" d="M54.107,51.741c1.324,0.418,2.298,0.974,3.899,1.185l2.717-4.458c-0.418,0.07-0.904,0.07-1.395,0.07
			c-2.645,0-3.828-0.905-5.777-1.463L54.107,51.741z"/>
		<path fill="#282C34" d="M66.432,51.253c0.628-0.068,1.322-0.14,2.159-0.14c4.804,0,5.501,1.952,9.331,1.952v-4.458
			c-3.83,0-4.527-1.88-9.331-1.88c-0.418,0-0.765,0-1.113,0.07L66.432,51.253z"/>
		<path fill="#282C34" d="M33.498,51.253l-1.044-4.595c-0.349,0-0.696-0.069-1.115-0.069c-4.804,0-5.5,1.95-9.33,1.88v4.458
			c3.83,0,4.526-1.952,9.33-1.952C32.175,51.113,32.872,51.185,33.498,51.253z"/>
		<path fill="#282C34" d="M41.923,52.993c1.532-0.207,2.576-0.765,3.9-1.183l0.626-4.666c-2.02,0.558-3.133,1.463-5.779,1.463
			c-0.488,0-0.975,0-1.393-0.07L41.923,52.993z"/>
	</g>
</g>
</svg>
